<?xml version="1.0" standalone="no"?>
<!DOCTYPE svg PUBLIC "-//W3C//DTD SVG 20010904//EN"
 "http://www.w3.org/TR/2001/REC-SVG-20010904/DTD/svg10.dtd">
<svg version="1.0" xmlns="http://www.w3.org/2000/svg"
 width="270.000000pt" height="272.000000pt" viewBox="0 0 270.000000 272.000000"
 preserveAspectRatio="xMidYMid meet">
<metadata>
Created by potrace 1.16, written by Peter Selinger 2001-2019
</metadata>
<g transform="translate(0.000000,272.000000) scale(0.100000,-0.100000)"
fill="#000000" stroke="none">
<path d="M1185 2649 c-181 -23 -401 -110 -553 -218 -159 -113 -300 -274 -386
-441 -66 -126 -116 -257 -94 -244 6 4 8 -1 4 -12 -23 -75 -37 -164 -41 -254
l-4 -105 10 91 c6 50 19 124 29 165 11 41 17 58 14 39 -14 -92 -13 -99 6 -25
33 128 49 174 102 280 138 277 381 492 671 594 264 92 501 94 766 5 122 -41
197 -79 302 -154 171 -122 303 -280 394 -473 39 -83 92 -261 93 -312 0 -58 6
-104 12 -100 4 2 6 -15 4 -38 -2 -23 -6 -89 -9 -147 -3 -58 -8 -124 -11 -148
-7 -60 -59 -225 -94 -300 -36 -78 -123 -211 -178 -275 -59 -68 -52 -71 14 -7
l57 55 -30 -45 c-57 -85 -240 -242 -381 -327 -20 -13 -32 -23 -26 -23 18 0
194 108 258 159 298 240 472 629 464 1043 -1 65 2 121 7 125 4 5 5 -9 2 -29
-3 -21 -2 -38 3 -38 16 0 2 -249 -20 -365 -43 -219 -150 -440 -295 -606 -40
-46 -71 -87 -69 -91 2 -3 -17 -25 -43 -48 -57 -50 -144 -111 -124 -87 18 22 6
22 -27 -2 -49 -34 -192 -101 -277 -130 -46 -15 -81 -32 -77 -36 4 -5 2 -5 -5
-1 -6 3 -31 3 -55 0 -34 -6 -39 -9 -23 -16 13 -5 0 -6 -35 -4 -38 4 -46 2 -25
-3 26 -6 20 -9 -40 -15 -108 -11 -115 -13 -47 -15 70 -1 232 29 327 61 372
125 676 430 800 801 22 66 34 116 29 129 -4 14 -2 18 5 14 7 -5 11 2 10 16 0
13 5 48 12 78 17 84 6 393 -20 501 -45 197 -127 361 -262 523 -280 336 -715
509 -1144 455z"/>
<path d="M1227 2139 c-8 -11 -23 -49 -33 -84 l-18 -63 -76 -7 c-196 -18 -362
-50 -515 -100 -86 -28 -115 -48 -115 -77 0 -24 27 -23 35 1 10 33 101 63 305
100 131 24 337 47 346 38 3 -3 -6 -70 -20 -149 -49 -265 -152 -943 -182 -1190
-7 -61 7 -80 26 -35 12 27 67 373 125 782 25 171 56 374 71 452 l26 142 31 6
c41 6 420 23 712 30 134 4 239 11 253 17 26 14 31 44 5 33 -10 -3 -85 -8 -168
-11 -153 -4 -750 -25 -795 -28 -21 -1 -25 3 -22 24 4 38 32 110 43 110 5 0 9
7 9 15 0 22 -27 18 -43 -6z"/>
</g>
</svg>
