<?xml version="1.0" standalone="no"?>
<!DOCTYPE svg PUBLIC "-//W3C//DTD SVG 20010904//EN"
 "http://www.w3.org/TR/2001/REC-SVG-20010904/DTD/svg10.dtd">
<svg version="1.0" xmlns="http://www.w3.org/2000/svg"
 width="499.000000pt" height="346.000000pt" viewBox="0 0 499.000000 346.000000"
 preserveAspectRatio="xMidYMid meet">
<metadata>
Created by potrace 1.16, written by Peter Selinger 2001-2019
</metadata>
<g transform="translate(0.000000,346.000000) scale(0.100000,-0.100000)"
fill="#000000" stroke="none">
<path d="M2205 3399 c-181 -23 -401 -110 -553 -218 -159 -113 -300 -274 -386
-441 -66 -126 -116 -257 -94 -244 6 4 8 -1 4 -12 -23 -75 -37 -164 -41 -254
l-4 -105 10 91 c6 50 19 124 29 165 11 41 17 58 14 39 -14 -92 -13 -99 6 -25
33 128 49 174 102 280 138 277 381 492 671 594 264 92 501 94 766 5 122 -41
197 -79 302 -154 171 -122 303 -280 394 -473 39 -83 92 -261 93 -312 0 -58 6
-104 12 -100 4 2 6 -15 4 -38 -2 -23 -6 -89 -9 -147 -3 -58 -8 -124 -11 -148
-7 -60 -59 -225 -94 -300 -36 -78 -123 -211 -178 -275 -59 -68 -52 -71 14 -7
l57 55 -30 -45 c-57 -85 -240 -242 -381 -327 -20 -13 -32 -23 -26 -23 18 0
194 108 258 159 298 240 472 629 464 1043 -1 65 2 121 7 125 4 5 5 -9 2 -29
-3 -21 -2 -38 3 -38 16 0 2 -249 -20 -365 -43 -219 -150 -440 -295 -606 -40
-46 -71 -87 -69 -91 2 -3 -17 -25 -43 -48 -57 -50 -144 -111 -124 -87 18 22 6
22 -27 -2 -49 -34 -192 -101 -277 -130 -46 -15 -81 -32 -77 -36 4 -5 2 -5 -5
-1 -6 3 -31 3 -55 0 -34 -6 -39 -9 -23 -16 13 -5 0 -6 -35 -4 -38 4 -46 2 -25
-3 26 -6 20 -9 -40 -15 -108 -11 -115 -13 -47 -15 70 -1 232 29 327 61 372
125 676 430 800 801 22 66 34 116 29 129 -4 14 -2 18 5 14 7 -5 11 2 10 16 0
13 5 48 12 78 17 84 6 393 -20 501 -45 197 -127 361 -262 523 -280 336 -715
509 -1144 455z"/>
<path d="M2247 2889 c-8 -11 -23 -49 -33 -84 l-18 -63 -76 -7 c-196 -18 -362
-50 -515 -100 -86 -28 -115 -48 -115 -77 0 -24 27 -23 35 1 10 33 101 63 305
100 131 24 337 47 346 38 3 -3 -6 -70 -20 -149 -49 -265 -152 -943 -182 -1190
-7 -61 7 -80 26 -35 12 27 67 373 125 782 25 171 56 374 71 452 l26 142 31 6
c41 6 420 23 712 30 134 4 239 11 253 17 26 14 31 44 5 33 -10 -3 -85 -8 -168
-11 -153 -4 -750 -25 -795 -28 -21 -1 -25 3 -22 24 4 38 32 110 43 110 5 0 9
7 9 15 0 22 -27 18 -43 -6z"/>
<path d="M90 515 c0 -23 3 -25 50 -25 l50 0 0 -170 0 -170 25 0 25 0 0 170 0
170 50 0 c47 0 50 2 50 25 l0 25 -125 0 -125 0 0 -25z"/>
<path d="M510 345 l0 -195 25 0 c25 0 25 1 25 85 l0 85 29 0 c27 0 35 -9 78
-85 45 -79 50 -85 81 -85 l32 0 -50 80 c-53 84 -58 100 -37 100 8 0 23 11 36
24 50 53 28 150 -39 173 -19 7 -68 12 -107 12 l-73 1 0 -195z m179 119 c27
-34 26 -50 -4 -79 -19 -20 -34 -25 -75 -25 l-50 0 0 65 0 65 54 0 c47 0 57 -4
75 -26z"/>
<path d="M957 534 c-4 -4 -7 -92 -7 -196 l0 -188 110 0 c103 0 110 1 110 20 0
18 -7 20 -80 20 l-80 0 0 65 0 65 70 0 c63 0 70 2 70 20 0 18 -7 20 -70 20
l-70 0 0 65 0 65 81 0 c78 0 80 1 77 23 -3 21 -8 22 -104 25 -55 1 -103 0
-107 -4z"/>
<path d="M1350 345 l0 -195 30 0 29 0 3 147 3 146 95 -146 c90 -140 97 -147
128 -147 l32 0 0 196 0 195 -27 -3 -28 -3 -5 -147 -5 -146 -99 149 c-89 134
-102 149 -127 149 l-29 0 0 -195z"/>
<path d="M1880 345 l0 -195 95 0 c107 0 140 11 174 59 55 78 49 215 -13 277
-39 39 -89 54 -183 54 l-73 0 0 -195z m201 119 c70 -62 63 -214 -11 -254 -11
-6 -47 -12 -78 -13 l-57 -2 -3 134 c-1 74 0 141 3 149 8 22 118 12 146 -14z"/>
<path d="M2340 525 c0 -12 66 -256 96 -357 4 -13 16 -18 39 -18 l34 0 41 129
c22 70 40 134 40 141 0 32 18 -11 55 -133 l41 -132 35 -3 35 -3 52 185 c29
102 52 190 52 195 0 6 -11 11 -25 11 -26 0 -26 -1 -86 -215 -12 -44 -25 -83
-29 -88 -4 -4 -27 61 -51 145 -42 143 -46 153 -69 153 -23 0 -28 -10 -67 -140
-24 -77 -46 -147 -49 -155 -5 -13 -34 75 -85 263 -8 30 -14 37 -34 37 -16 0
-25 -6 -25 -15z"/>
<path d="M3037 533 c-4 -3 -7 -91 -7 -195 l0 -188 30 0 30 0 0 195 0 195 -23
0 c-13 0 -27 -3 -30 -7z"/>
<path d="M3260 515 c0 -23 4 -25 45 -25 l45 0 0 -170 0 -170 30 0 30 0 0 170
0 170 50 0 c47 0 50 2 50 25 l0 25 -125 0 -125 0 0 -25z"/>
<path d="M3677 533 c-4 -3 -7 -91 -7 -195 l0 -188 30 0 30 0 0 85 0 85 95 0
95 0 0 -85 0 -85 30 0 30 0 -2 193 -3 192 -27 3 -28 3 0 -90 0 -91 -95 0 -95
0 0 90 c0 88 -1 90 -23 90 -13 0 -27 -3 -30 -7z"/>
<path d="M4180 388 c0 -136 2 -157 20 -186 27 -44 80 -66 144 -59 41 4 55 11
82 40 39 42 47 90 42 247 l-3 105 -27 3 -28 3 0 -146 0 -147 -29 -29 c-37 -36
-79 -38 -118 -5 l-28 24 -3 151 -3 151 -25 0 -24 0 0 -152z"/>
<path d="M4714 530 c-33 -13 -64 -59 -64 -95 0 -51 32 -82 108 -105 89 -28
112 -44 112 -79 0 -40 -28 -61 -81 -61 -47 1 -69 12 -87 46 -8 16 -18 20 -37
17 -34 -7 -32 -28 8 -68 74 -74 231 -49 253 40 8 33 -2 71 -25 94 -10 10 -55
31 -100 46 -85 28 -108 49 -96 86 9 26 67 51 100 43 14 -3 35 -18 48 -33 22
-27 67 -32 67 -8 0 21 -30 56 -60 72 -31 16 -112 19 -146 5z"/>
</g>
</svg>
